<svg id="Capa_1" enable-background="new 0 0 512 512" height="512" viewBox="0 0 512 512" width="512" xmlns="http://www.w3.org/2000/svg"><g><path d="m60 180v-45c0-8.291 6.709-15 15-15h362c8.291 0 15 6.709 15 15v45h60v-75c0-24.814-20.186-45-45-45h-257.494c-6.973-34.189-37.295-60-73.506-60h-91c-24.814 0-45 20.186-45 45v135z"/><path d="m90 150h332v30h-332z"/><path d="m256 287c-41.367 0-75 33.647-75 75s33.633 75 75 75 75-33.647 75-75-33.633-75-75-75zm30 90h-15v15c0 8.291-6.709 15-15 15s-15-6.709-15-15v-15h-15c-8.291 0-15-6.709-15-15s6.709-15 15-15h15v-15c0-8.291 6.709-15 15-15s15 6.709 15 15v15h15c8.291 0 15 6.709 15 15s-6.709 15-15 15z"/><g><path d="m0 212v255c0 24.814 20.186 45 45 45h422c24.814 0 45-20.186 45-45v-255zm256 255c-57.891 0-105-47.109-105-105s47.109-105 105-105 105 47.109 105 105-47.109 105-105 105z"/></g></g></svg>