<?xml version="1.0" encoding="iso-8859-1"?>
<!-- Generator: Adobe Illustrator 19.0.0, SVG Export Plug-In . SVG Version: 6.00 Build 0)  -->
<svg version="1.1" id="Capa_1" xmlns="http://www.w3.org/2000/svg" xmlns:xlink="http://www.w3.org/1999/xlink" x="0px" y="0px"
	 viewBox="0 0 511.651 511.651" style="enable-background:new 0 0 511.651 511.651;" xml:space="preserve">
<g>
	<polygon style="fill:#D7E9FF;" points="187.871,43.97 451.692,43.97 451.692,67.953 451.692,75.947 155.893,75.947 139.904,75.947 
		59.958,75.947 59.958,67.953 59.958,43.97 83.942,43.97 83.942,27.98 163.887,27.98 	"/>
	<polygon style="fill:#D7E9FF;" points="139.904,75.947 451.692,75.947 451.692,91.936 451.692,99.931 163.887,99.931 
		147.898,83.942 	"/>
	<polygon style="fill:#D7E9FF;" points="163.887,99.931 451.692,99.931 475.675,99.931 475.675,123.915 475.675,131.909 
		35.974,131.909 35.974,123.915 35.974,99.931 59.958,99.931 59.958,75.947 139.904,75.947 147.898,83.942 	"/>
</g>
<path style="fill:#5C9EFF;" d="M507.653,179.877v287.804c0,8.791-7.197,15.989-15.988,15.989H19.986
	c-8.795,0-15.989-7.198-15.989-15.989V179.877c0-8.795,7.194-15.989,15.989-15.989h15.989h439.7h15.99
	C500.456,163.887,507.653,171.082,507.653,179.877z M351.761,343.764v-23.983c0-6.636-5.357-11.991-11.992-11.991
	c-6.637,0-11.992,5.355-11.992,11.991v11.992H183.874v-11.992c0-6.636-5.356-11.991-11.992-11.991s-11.992,5.355-11.992,11.991
	v23.983c0,6.637,5.356,11.992,11.992,11.992h11.992h143.902h11.992C346.403,355.758,351.761,350.401,351.761,343.764z"/>
<path style="fill:#94C1FF;" d="M19.986,467.681V179.877c0-8.795,7.194-15.989,15.989-15.989H19.986
	c-8.795,0-15.989,7.194-15.989,15.989v287.804c0,8.791,7.194,15.989,15.989,15.989h15.989
	C27.18,483.671,19.986,476.471,19.986,467.681z"/>
<path style="fill:#2287FF;" d="M491.665,179.877v287.804c0,8.791-7.199,15.989-15.99,15.989h15.99
	c8.791,0,15.988-7.198,15.988-15.989V179.877c0-8.795-7.197-15.989-15.988-15.989h-15.99
	C484.466,163.887,491.665,171.082,491.665,179.877z"/>
<polygon style="fill:#D7E9FF;" points="475.675,155.893 475.675,163.887 35.974,163.887 35.974,155.893 35.974,131.909 
	475.675,131.909 "/>
<path style="fill:#FFFFFF;" d="M351.761,319.781v23.983c0,6.637-5.357,11.992-11.992,11.992h-11.992H183.874h-11.992
	c-6.636,0-11.992-5.355-11.992-11.992v-23.983c0-6.636,5.356-11.991,11.992-11.991s11.992,5.355,11.992,11.991v11.992h143.902
	v-11.992c0-6.636,5.355-11.991,11.992-11.991C346.403,307.79,351.761,313.146,351.761,319.781z"/>
<path style="fill:#5C9EFF;" d="M339.768,355.758h-11.992H183.874h-11.992c-6.636,0-11.992-5.355-11.992-11.992v7.995
	c0,6.636,5.356,11.991,11.992,11.991h11.992h143.902h11.992c6.635,0,11.992-5.355,11.992-11.991v-7.995
	C351.761,350.401,346.403,355.758,339.768,355.758z"/>
<g>
	<rect x="59.955" y="115.915" style="fill:#FFFFFF;" width="391.73" height="15.989"/>
	<rect x="83.945" y="59.955" style="fill:#FFFFFF;" width="343.77" height="15.988"/>
</g>
<rect x="35.975" y="155.895" style="fill:#94C1FF;" width="439.7" height="7.994"/>
<rect x="35.975" y="99.935" style="fill:#FFFFFF;" width="7.995" height="55.962"/>
<g style="opacity:0.5;">
	<rect x="59.955" y="43.975" style="fill:#FFFFFF;" width="7.994" height="31.978"/>
</g>
<rect x="467.685" y="99.935" style="fill:#94C1FF;" width="7.994" height="55.962"/>
<g style="opacity:0.3;">
	<rect x="443.695" y="43.975" width="7.996" height="47.967"/>
</g>
<g>
	<path style="fill:#116FFF;" d="M491.665,487.668H19.986C8.966,487.668,0,478.704,0,467.682V179.877
		c0-11.02,8.966-19.986,19.986-19.986h471.679c11.023,0,19.986,8.967,19.986,19.986v287.804
		C511.651,478.704,502.688,487.668,491.665,487.668z M19.986,167.885c-6.613,0-11.992,5.38-11.992,11.992v287.804
		c0,6.613,5.379,11.992,11.992,11.992h471.679c6.611,0,11.992-5.379,11.992-11.992V179.877c0-6.612-5.381-11.992-11.992-11.992
		H19.986z"/>
	<path style="fill:#116FFF;" d="M339.768,359.754H171.882c-8.818,0-15.989-7.167-15.989-15.989v-23.983
		c0-8.822,7.171-15.989,15.989-15.989s15.989,7.167,15.989,15.989v7.995h135.907v-7.995c0-8.822,7.168-15.989,15.99-15.989
		s15.988,7.167,15.988,15.989v23.983C355.757,352.587,348.591,359.754,339.768,359.754z M171.882,311.788
		c-4.407,0-7.995,3.591-7.995,7.994v23.983c0,4.404,3.587,7.995,7.995,7.995h167.886c4.402,0,7.994-3.591,7.994-7.995v-23.983
		c0-4.403-3.592-7.994-7.994-7.994c-4.404,0-7.996,3.591-7.996,7.994v11.992c0,2.209-1.787,3.997-3.996,3.997H183.874
		c-2.209,0-3.998-1.788-3.998-3.997v-11.992C179.876,315.379,176.289,311.788,171.882,311.788z"/>
	<path style="fill:#116FFF;" d="M35.974,159.89c-2.209,0-3.997-1.788-3.997-3.997V131.91c0-2.209,1.788-3.997,3.997-3.997
		s3.998,1.788,3.998,3.997v23.984C39.972,158.102,38.184,159.89,35.974,159.89z"/>
	<path style="fill:#116FFF;" d="M475.675,135.907h-439.7c-2.209,0-3.997-1.788-3.997-3.998c0-2.209,1.788-3.997,3.997-3.997h439.7
		c2.211,0,3.998,1.788,3.998,3.997C479.673,134.119,477.886,135.907,475.675,135.907z"/>
	<path style="fill:#116FFF;" d="M475.675,159.89c-2.209,0-3.996-1.788-3.996-3.997V131.91c0-2.209,1.787-3.997,3.996-3.997
		c2.211,0,3.998,1.788,3.998,3.997v23.984C479.673,158.102,477.886,159.89,475.675,159.89z"/>
	<path style="fill:#116FFF;" d="M475.675,103.929H163.887c-1.062,0-2.077-0.422-2.826-1.171l-22.813-22.813H63.955v19.986
		c0,2.209-1.788,3.997-3.997,3.997H35.974c-2.209,0-3.997-1.788-3.997-3.997c0-2.21,1.788-3.998,3.997-3.998h19.987V75.947
		c0-2.209,1.788-3.997,3.997-3.997h79.945c1.062,0,2.077,0.422,2.826,1.171l22.812,22.812h310.134c2.211,0,3.998,1.788,3.998,3.998
		C479.673,102.14,477.886,103.929,475.675,103.929z"/>
	<path style="fill:#116FFF;" d="M475.675,127.912c-2.209,0-3.996-1.788-3.996-3.997V99.932c0-2.21,1.787-3.998,3.996-3.998
		c2.211,0,3.998,1.788,3.998,3.998v23.983C479.673,126.124,477.886,127.912,475.675,127.912z"/>
	<path style="fill:#116FFF;" d="M35.974,127.912c-2.209,0-3.997-1.788-3.997-3.997V99.932c0-2.21,1.788-3.998,3.997-3.998
		s3.998,1.788,3.998,3.998v23.983C39.972,126.124,38.184,127.912,35.974,127.912z"/>
	<path style="fill:#116FFF;" d="M451.692,119.918H59.958c-2.209,0-3.997-1.788-3.997-3.998c0-2.209,1.788-3.997,3.997-3.997h391.734
		c2.209,0,3.996,1.788,3.996,3.997C455.688,118.13,453.901,119.918,451.692,119.918z"/>
	<path style="fill:#116FFF;" d="M451.692,79.945H155.893c-2.209,0-3.997-1.788-3.997-3.998c0-2.209,1.788-3.997,3.997-3.997h295.799
		c2.209,0,3.996,1.788,3.996,3.997C455.688,78.157,453.901,79.945,451.692,79.945z"/>
	<path style="fill:#116FFF;" d="M451.692,95.933c-2.211,0-3.998-1.787-3.998-3.997V75.947c0-2.209,1.787-3.997,3.998-3.997
		c2.209,0,3.996,1.788,3.996,3.997v15.989C455.688,94.146,453.901,95.933,451.692,95.933z"/>
	<path style="fill:#116FFF;" d="M451.692,47.967H187.871c-0.789,0-1.562-0.234-2.218-0.672l-22.977-15.317H87.939V43.97
		c0,2.209-1.788,3.997-3.997,3.997H59.958c-2.209,0-3.997-1.788-3.997-3.997c0-2.21,1.788-3.998,3.997-3.998h19.987V27.98
		c0-2.21,1.788-3.997,3.997-3.997h79.946c0.789,0,1.561,0.233,2.217,0.671l22.977,15.317h262.611c2.209,0,3.996,1.788,3.996,3.998
		C455.688,46.179,453.901,47.967,451.692,47.967z"/>
	<path style="fill:#116FFF;" d="M451.692,71.95c-2.211,0-3.998-1.788-3.998-3.997V43.97c0-2.21,1.787-3.998,3.998-3.998
		c2.209,0,3.996,1.788,3.996,3.998v23.983C455.688,70.162,453.901,71.95,451.692,71.95z"/>
	<path style="fill:#116FFF;" d="M59.958,71.95c-2.209,0-3.997-1.788-3.997-3.997V43.97c0-2.21,1.788-3.998,3.997-3.998
		c2.209,0,3.997,1.788,3.997,3.998v23.983C63.955,70.162,62.167,71.95,59.958,71.95z"/>
	<path style="fill:#116FFF;" d="M427.708,63.956H83.942c-2.209,0-3.997-1.788-3.997-3.997c0-2.21,1.788-3.998,3.997-3.998h343.766
		c2.209,0,3.998,1.788,3.998,3.998C431.706,62.168,429.917,63.956,427.708,63.956z"/>
	<path style="fill:#116FFF;" d="M35.974,447.694c-2.209,0-3.997-1.788-3.997-3.997V203.86c0-2.209,1.788-3.997,3.997-3.997
		s3.998,1.788,3.998,3.997v239.837C39.972,445.906,38.184,447.694,35.974,447.694z"/>
	<path style="fill:#116FFF;" d="M475.675,447.694c-2.209,0-3.996-1.788-3.996-3.997V203.86c0-2.209,1.787-3.997,3.996-3.997
		c2.211,0,3.998,1.788,3.998,3.997v239.837C479.673,445.906,477.886,447.694,475.675,447.694z"/>
</g>
<g>
</g>
<g>
</g>
<g>
</g>
<g>
</g>
<g>
</g>
<g>
</g>
<g>
</g>
<g>
</g>
<g>
</g>
<g>
</g>
<g>
</g>
<g>
</g>
<g>
</g>
<g>
</g>
<g>
</g>
</svg>
